<mxfile host="app.diagrams.net" agent="Mozilla/5.0 (Macintosh; Intel Mac OS X 10_15_7) AppleWebKit/605.1.15 (KHTML, like Gecko) Version/17.5 Safari/605.1.15" version="24.8.4">
  <diagram name="Page-1" id="a-Oj2Ixuf5GKJPlVZ-C3">
    <mxGraphModel dx="1026" dy="641" grid="1" gridSize="10" guides="1" tooltips="1" connect="1" arrows="1" fold="1" page="1" pageScale="1" pageWidth="850" pageHeight="1100" math="0" shadow="0">
      <root>
        <mxCell id="0" />
        <mxCell id="1" parent="0" />
        <mxCell id="2" value="User" style="whiteSpace=wrap;strokeWidth=2;" parent="1" vertex="1">
          <mxGeometry x="528" y="8" width="92" height="49" as="geometry" />
        </mxCell>
        <mxCell id="3" value="Ask question" style="rounded=1;arcSize=40;strokeWidth=2" parent="1" vertex="1">
          <mxGeometry x="514" y="107" width="120" height="49" as="geometry" />
        </mxCell>
        <mxCell id="4" value="Question asked?" style="rhombus;strokeWidth=2;whiteSpace=wrap;" parent="1" vertex="1">
          <mxGeometry x="416" y="205" width="163" height="163" as="geometry" />
        </mxCell>
        <mxCell id="5" value="Is question for chatbot?" style="rhombus;strokeWidth=2;whiteSpace=wrap;" parent="1" vertex="1">
          <mxGeometry x="142" y="450" width="217" height="217" as="geometry" />
        </mxCell>
        <mxCell id="6" value="Is question for portfolio site?" style="rhombus;strokeWidth=2;whiteSpace=wrap;" parent="1" vertex="1">
          <mxGeometry x="409" y="441" width="236" height="236" as="geometry" />
        </mxCell>
        <mxCell id="7" value="View Portfolio" style="whiteSpace=wrap;strokeWidth=2;" parent="1" vertex="1">
          <mxGeometry x="446" y="758" width="162" height="49" as="geometry" />
        </mxCell>
        <mxCell id="8" value="Send question to chatbot backend" style="whiteSpace=wrap;strokeWidth=2;" parent="1" vertex="1">
          <mxGeometry x="49" y="749" width="240" height="66" as="geometry" />
        </mxCell>
        <mxCell id="9" value="Function not implemented" style="rounded=1;arcSize=40;strokeWidth=2" parent="1" vertex="1">
          <mxGeometry x="136" y="1361" width="220" height="49" as="geometry" />
        </mxCell>
        <mxCell id="10" value="Process question" style="rhombus;strokeWidth=2;whiteSpace=wrap;" parent="1" vertex="1">
          <mxGeometry x="85" y="865" width="168" height="168" as="geometry" />
        </mxCell>
        <mxCell id="11" value="Generate response" style="rhombus;strokeWidth=2;whiteSpace=wrap;" parent="1" vertex="1">
          <mxGeometry x="8" y="1106" width="183" height="183" as="geometry" />
        </mxCell>
        <mxCell id="12" value="Show response" style="rounded=1;arcSize=40;strokeWidth=2" parent="1" vertex="1">
          <mxGeometry x="612" y="1361" width="135" height="49" as="geometry" />
        </mxCell>
        <mxCell id="13" value="" style="curved=1;startArrow=none;endArrow=block;exitX=0.5;exitY=0.99;entryX=0.5;entryY=-0.01;" parent="1" source="2" target="3" edge="1">
          <mxGeometry relative="1" as="geometry">
            <Array as="points" />
          </mxGeometry>
        </mxCell>
        <mxCell id="14" value="" style="curved=1;startArrow=none;endArrow=block;exitX=0.19;exitY=0.98;entryX=0.5;entryY=0;" parent="1" source="3" target="4" edge="1">
          <mxGeometry relative="1" as="geometry">
            <Array as="points">
              <mxPoint x="498" y="180" />
            </Array>
          </mxGeometry>
        </mxCell>
        <mxCell id="15" value="Yes" style="curved=1;startArrow=none;endArrow=block;exitX=0;exitY=0.74;entryX=0.5;entryY=0;" parent="1" source="4" target="5" edge="1">
          <mxGeometry relative="1" as="geometry">
            <Array as="points">
              <mxPoint x="250" y="404" />
            </Array>
          </mxGeometry>
        </mxCell>
        <mxCell id="16" value="No" style="curved=1;startArrow=none;endArrow=block;exitX=0.62;exitY=1;entryX=0.5;entryY=0;" parent="1" source="4" target="6" edge="1">
          <mxGeometry relative="1" as="geometry">
            <Array as="points">
              <mxPoint x="527" y="404" />
            </Array>
          </mxGeometry>
        </mxCell>
        <mxCell id="17" value="Yes" style="curved=1;startArrow=none;endArrow=block;exitX=0.5;exitY=1;entryX=0.5;entryY=0;" parent="1" source="6" target="7" edge="1">
          <mxGeometry relative="1" as="geometry">
            <Array as="points" />
          </mxGeometry>
        </mxCell>
        <mxCell id="18" value="Yes" style="curved=1;startArrow=none;endArrow=block;exitX=0.23;exitY=1;entryX=0.5;entryY=0;" parent="1" source="5" target="8" edge="1">
          <mxGeometry relative="1" as="geometry">
            <Array as="points">
              <mxPoint x="168" y="713" />
            </Array>
          </mxGeometry>
        </mxCell>
        <mxCell id="19" value="No" style="curved=1;startArrow=none;endArrow=block;exitX=0.76;exitY=1;entryX=0.65;entryY=0.01;" parent="1" source="5" target="9" edge="1">
          <mxGeometry relative="1" as="geometry">
            <Array as="points">
              <mxPoint x="331" y="713" />
              <mxPoint x="331" y="1325" />
            </Array>
          </mxGeometry>
        </mxCell>
        <mxCell id="20" value="" style="curved=1;startArrow=none;endArrow=block;exitX=0.5;exitY=1;entryX=0.5;entryY=0;" parent="1" source="8" target="10" edge="1">
          <mxGeometry relative="1" as="geometry">
            <Array as="points" />
          </mxGeometry>
        </mxCell>
        <mxCell id="21" value="Yes" style="curved=1;startArrow=none;endArrow=block;exitX=0.21;exitY=1;entryX=0.5;entryY=0;" parent="1" source="10" target="11" edge="1">
          <mxGeometry relative="1" as="geometry">
            <Array as="points">
              <mxPoint x="100" y="1069" />
            </Array>
          </mxGeometry>
        </mxCell>
        <mxCell id="22" value="Yes" style="curved=1;startArrow=none;endArrow=block;exitX=0.41;exitY=1;entryX=0;entryY=0.36;" parent="1" source="11" target="12" edge="1">
          <mxGeometry relative="1" as="geometry">
            <Array as="points">
              <mxPoint x="77" y="1325" />
            </Array>
          </mxGeometry>
        </mxCell>
        <mxCell id="23" value="" style="curved=1;startArrow=none;endArrow=block;exitX=0.5;exitY=0.01;entryX=0.94;entryY=0.98;" parent="1" source="12" target="3" edge="1">
          <mxGeometry relative="1" as="geometry">
            <Array as="points">
              <mxPoint x="680" y="180" />
            </Array>
          </mxGeometry>
        </mxCell>
        <mxCell id="24" value="No" style="curved=1;startArrow=none;endArrow=block;exitX=0.71;exitY=1;entryX=0.33;entryY=0.01;" parent="1" source="11" target="9" edge="1">
          <mxGeometry relative="1" as="geometry">
            <Array as="points">
              <mxPoint x="153" y="1325" />
            </Array>
          </mxGeometry>
        </mxCell>
        <mxCell id="25" value="No" style="curved=1;startArrow=none;endArrow=block;exitX=0.78;exitY=1;entryX=0.48;entryY=0.01;" parent="1" source="10" target="9" edge="1">
          <mxGeometry relative="1" as="geometry">
            <Array as="points">
              <mxPoint x="237" y="1069" />
              <mxPoint x="237" y="1325" />
            </Array>
          </mxGeometry>
        </mxCell>
      </root>
    </mxGraphModel>
  </diagram>
</mxfile>
